<?xml version="1.0" encoding="iso-8859-1"?>
<!-- Generator: Adobe Illustrator 16.0.0, SVG Export Plug-In . SVG Version: 6.00 Build 0)  -->
<!DOCTYPE svg PUBLIC "-//W3C//DTD SVG 1.1//EN" "http://www.w3.org/Graphics/SVG/1.1/DTD/svg11.dtd">
<svg xmlns="http://www.w3.org/2000/svg" xmlns:xlink="http://www.w3.org/1999/xlink" version="1.1" id="Capa_1" x="0px" y="0px" width="512px" height="512px" viewBox="0 0 46.436 46.435" style="enable-background:new 0 0 46.436 46.435;" xml:space="preserve">
<g>
	<g>
		<path d="M44.039,11.613c-1.899-2.218-4.666-3.49-7.589-3.49c-1.896,0-3.747,0.543-5.336,1.548c-1.81-1.583-4.143-2.47-6.581-2.47    c-2.378,0-4.685,0.854-6.49,2.401c-1.021,0.874-1.816,1.912-2.392,3.04c0.415-0.052,0.834-0.08,1.257-0.08    c0.733,0,1.462,0.105,2.18,0.26c0.27-0.335,0.568-0.652,0.906-0.942c1.265-1.083,2.876-1.679,4.539-1.679    c2.036,0,3.965,0.882,5.293,2.42l0.973,1.126l1.135-0.964c1.261-1.071,2.864-1.661,4.518-1.661c2.046,0,3.98,0.89,5.31,2.442    c2.506,2.924,2.164,7.343-0.754,9.844c-0.083,0.07-2.03,1.729-4.386,3.737l-7.343,6.257c0,0-8.83-9.452-11.542-13.811    c0,0-1.688-0.359-2.847,0.715C16.803,24.69,27.005,35.36,27.005,35.36c0.569,0.663,1.398,1.043,2.272,1.043    c0.712,0,1.401-0.254,1.941-0.715l7.348-6.261c2.352-2.004,4.294-3.659,4.385-3.735C47.132,22.109,47.62,15.793,44.039,11.613z" fill="#FDFDFD"/>
		<path d="M18.545,36.169L6.843,32.705c-2.842-0.851-4.464-3.854-3.615-6.697c0.677-2.262,2.794-3.841,5.152-3.841    c0.513,0,1.024,0.074,1.521,0.221l1.428,0.42l0.432-1.424c0.683-2.25,2.799-3.822,5.147-3.822c0.519,0,1.038,0.076,1.541,0.227    c2.057,0.614,3.468,2.357,3.772,4.35l1.156,1.343l1.549,1.801l0.021,0.024c1.298-4.417-1.227-9.074-5.642-10.393    c-0.781-0.234-1.591-0.353-2.399-0.353c-3.193,0-6.111,1.864-7.508,4.667c-0.34-0.042-0.681-0.063-1.021-0.063    c-3.674,0-6.975,2.46-8.027,5.983c-1.32,4.426,1.204,9.104,5.635,10.429l11.979,3.547c0.251,0.074,0.511,0.112,0.771,0.112    c1.188,0,2.257-0.794,2.599-1.931c0.293-0.973,0.74-2.457,1.221-4.051l-2.319-2.697C19.606,32.649,18.956,34.802,18.545,36.169z" fill="#FDFDFD"/>
	</g>
</g>
<g>
</g>
<g>
</g>
<g>
</g>
<g>
</g>
<g>
</g>
<g>
</g>
<g>
</g>
<g>
</g>
<g>
</g>
<g>
</g>
<g>
</g>
<g>
</g>
<g>
</g>
<g>
</g>
<g>
</g>
</svg>
