<?xml version="1.0" encoding="iso-8859-1"?>
<!-- Generator: Adobe Illustrator 16.0.0, SVG Export Plug-In . SVG Version: 6.00 Build 0)  -->
<!DOCTYPE svg PUBLIC "-//W3C//DTD SVG 1.1//EN" "http://www.w3.org/Graphics/SVG/1.1/DTD/svg11.dtd">
<svg xmlns="http://www.w3.org/2000/svg" xmlns:xlink="http://www.w3.org/1999/xlink" version="1.1" id="Capa_1" x="0px" y="0px" width="512px" height="512px" viewBox="0 0 46 46" style="enable-background:new 0 0 46 46;" xml:space="preserve">
<g>
	<g>
		<path d="M25.984,15.901c-0.004-0.033,0-0.095-0.006-0.129l-0.285-1.717c1.613-1.605,3.629-3.618,3.686-3.676    c0.948-0.947,1.471-2.211,1.471-3.552c0-1.34-0.522-2.602-1.471-3.55c-0.947-0.948-2.208-1.471-3.548-1.471    c-1.024,0-2.003,0.305-2.831,0.872c-0.828-0.567-1.807-0.873-2.832-0.873c-1.341,0-2.601,0.521-3.548,1.47    c-0.948,0.947-1.47,2.208-1.47,3.549s0.522,2.601,1.461,3.539c0.056,0.058,2.077,2.069,3.693,3.678l-0.283,1.702    c-0.006,0.034-0.002,0.123-0.006,0.157c-9.913,1.445-17.54,10.295-17.587,20.295H43.57C43.525,26.195,35.896,17.346,25.984,15.901    z M22.083,12.988c-1.639-1.63-3.944-3.925-4.048-4.029c-0.57-0.57-0.884-1.328-0.884-2.134c0-0.807,0.314-1.564,0.885-2.135    c0.569-0.57,1.327-0.884,2.133-0.884c0.803,0,1.558,0.311,2.127,0.876c0.39,0.387,1.019,0.387,1.409,0    c1.143-1.134,3.125-1.129,4.26,0.008c0.57,0.57,0.885,1.328,0.885,2.135c0,0.806-0.314,1.563-0.885,2.134    c-0.062,0.062-2.395,2.384-4.048,4.029c-0.229,0.229-0.334,0.554-0.281,0.873l0.296,1.792c-0.312-0.014-0.618-0.047-0.934-0.047    s-0.623,0.033-0.935,0.047l0.298-1.792C22.416,13.542,22.312,13.216,22.083,12.988z" fill="#FDFDFD"/>
		<path d="M43,38.195H3c-1.657,0-3,1.342-3,3c0,1.656,1.343,3,3,3h40c1.657,0,3-1.344,3-3C46,39.537,44.657,38.195,43,38.195z" fill="#FDFDFD"/>
	</g>
</g>
<g>
</g>
<g>
</g>
<g>
</g>
<g>
</g>
<g>
</g>
<g>
</g>
<g>
</g>
<g>
</g>
<g>
</g>
<g>
</g>
<g>
</g>
<g>
</g>
<g>
</g>
<g>
</g>
<g>
</g>
</svg>
