<?xml version="1.0" encoding="iso-8859-1"?>
<!-- Generator: Adobe Illustrator 16.0.0, SVG Export Plug-In . SVG Version: 6.00 Build 0)  -->
<!DOCTYPE svg PUBLIC "-//W3C//DTD SVG 1.1//EN" "http://www.w3.org/Graphics/SVG/1.1/DTD/svg11.dtd">
<svg xmlns="http://www.w3.org/2000/svg" xmlns:xlink="http://www.w3.org/1999/xlink" version="1.1" id="Capa_1" x="0px" y="0px" width="512px" height="512px" viewBox="0 0 45.953 45.953" style="enable-background:new 0 0 45.953 45.953;" xml:space="preserve">
<g>
	<g>
		<path d="M45.589,1.816L44.123,0.35C43.899,0.126,43.598,0,43.28,0c-0.316,0-0.619,0.126-0.843,0.35L41.587,1.2    c-0.811-0.343-1.782-0.187-2.443,0.474c-0.418,0.418-0.652,0.985-0.652,1.576c0,0.275,0.055,0.543,0.152,0.796    C31.92,9.646,24.5,14.354,16.558,18.031l-0.003,0.001c-1.51,0.699-2.886,1.66-4.063,2.836l-0.35,0.35    c-0.182-0.033-0.366-0.054-0.555-0.054c-0.811,0-1.574,0.316-2.147,0.89L2,29.494c-0.574,0.573-0.89,1.336-0.89,2.146    c0,0.189,0.021,0.375,0.054,0.557c-1.534,1.542-1.533,4.035,0.006,5.572l7.026,7.027c0.74,0.74,1.744,1.156,2.791,1.156    c1.044,0,2.044-0.414,2.784-1.15c0.182,0.033,0.367,0.055,0.556,0.055c0.811,0,1.574-0.316,2.147-0.891l7.44-7.439    c0.733-0.733,1.01-1.751,0.835-2.702l0.351-0.351c1.177-1.176,2.137-2.551,2.836-4.062l0.001-0.002    c3.681-7.949,8.393-15.375,13.999-22.103c0.787,0.283,1.698,0.116,2.33-0.514c0.418-0.418,0.651-0.985,0.651-1.576    c0-0.302-0.062-0.596-0.178-0.869l0.85-0.85C46.055,3.036,46.055,2.281,45.589,1.816z M22.5,35.114l-7.44,7.44    c-0.203,0.203-0.468,0.304-0.733,0.304c-0.265,0-0.531-0.101-0.733-0.304L3.413,32.374c-0.194-0.194-0.304-0.458-0.304-0.733    c0-0.274,0.11-0.539,0.304-0.732l7.44-7.439c0.194-0.194,0.458-0.305,0.733-0.305s0.539,0.109,0.733,0.305l10.18,10.181    C22.904,34.053,22.904,34.709,22.5,35.114z" fill="#FDFDFD"/>
		<path d="M15.325,30.643c-0.006-1.5-1.223-2.713-2.724-2.715c-1.503,0-2.723,1.221-2.724,2.725c0,0.074,0.008,3.635,0.012,4.945    c0,0.265,0.215,0.479,0.479,0.479c1.312,0.003,4.873,0.013,4.946,0.011c1.504,0,2.724-1.219,2.724-2.723    C18.038,31.865,16.824,30.648,15.325,30.643z" fill="#FDFDFD"/>
	</g>
</g>
<g>
</g>
<g>
</g>
<g>
</g>
<g>
</g>
<g>
</g>
<g>
</g>
<g>
</g>
<g>
</g>
<g>
</g>
<g>
</g>
<g>
</g>
<g>
</g>
<g>
</g>
<g>
</g>
<g>
</g>
</svg>
