<?xml version="1.0" encoding="iso-8859-1"?>
<!-- Generator: Adobe Illustrator 16.0.0, SVG Export Plug-In . SVG Version: 6.00 Build 0)  -->
<!DOCTYPE svg PUBLIC "-//W3C//DTD SVG 1.1//EN" "http://www.w3.org/Graphics/SVG/1.1/DTD/svg11.dtd">
<svg xmlns="http://www.w3.org/2000/svg" xmlns:xlink="http://www.w3.org/1999/xlink" version="1.1" id="Capa_1" x="0px" y="0px" width="512px" height="512px" viewBox="0 0 45.973 45.973" style="enable-background:new 0 0 45.973 45.973;" xml:space="preserve">
<g>
	<g>
		<path d="M26.1,11.514c0.188,0.304,0.586,0.397,0.892,0.211c1.509-0.928,5.605-3.446,5.688-3.498    c1.729-1.067,2.264-3.336,1.195-5.063c-1.065-1.726-3.323-2.259-5.049-1.202c-1.071-1.718-3.329-2.248-5.056-1.184    c-1.727,1.068-2.262,3.334-1.196,5.063C22.627,5.924,25.165,10.009,26.1,11.514z" fill="#FDFDFD"/>
		<path d="M10.416,15.5c0.76-1.832,2.823-6.806,2.863-6.907c0.866-2.103-0.136-4.51-2.239-5.376    C8.942,2.353,6.544,3.351,5.673,5.441c-2.1-0.854-4.496,0.147-5.362,2.245c-0.865,2.102,0.137,4.509,2.239,5.376    c0.102,0.041,5.085,2.08,6.92,2.832C9.84,16.046,10.263,15.87,10.416,15.5z" fill="#FDFDFD"/>
		<path d="M10.627,24.63c-1.092-0.926-2.723-0.791-3.649,0.295c-1.094-0.919-2.725-0.78-3.649,0.31    c-0.925,1.095-0.791,2.73,0.303,3.657c0.053,0.045,2.647,2.23,3.602,3.036c0.193,0.162,0.48,0.139,0.644-0.054    c0.81-0.951,3.009-3.535,3.053-3.589C11.854,27.192,11.72,25.556,10.627,24.63z" fill="#FDFDFD"/>
		<path d="M45.822,14.728c-0.479-1.35-1.956-2.053-3.304-1.58c-0.482-1.345-1.961-2.045-3.31-1.568    c-1.35,0.481-2.056,1.964-1.577,3.313c0.023,0.065,1.167,3.26,1.587,4.438c0.085,0.237,0.346,0.36,0.583,0.276    c1.178-0.415,4.378-1.543,4.443-1.567C45.596,17.561,46.303,16.077,45.822,14.728z" fill="#FDFDFD"/>
		<path d="M14.16,18.094v0.714v2.915v14.573c-2.653,0-4.795,2.178-4.733,4.837c0.058,2.507,2.101,4.55,4.607,4.61    c2.664,0.065,4.847-2.073,4.847-4.723V21.754h11.228V31.3c-2.656,0-4.778,2.183-4.711,4.848c0.062,2.502,2.101,4.543,4.604,4.6    c2.661,0.062,4.828-2.076,4.828-4.723V17.728c0-1.335-1.082-2.416-2.417-2.416h-15.47C15.406,15.312,14.16,16.558,14.16,18.094z" fill="#FDFDFD"/>
	</g>
</g>
<g>
</g>
<g>
</g>
<g>
</g>
<g>
</g>
<g>
</g>
<g>
</g>
<g>
</g>
<g>
</g>
<g>
</g>
<g>
</g>
<g>
</g>
<g>
</g>
<g>
</g>
<g>
</g>
<g>
</g>
</svg>
