<?xml version="1.0" encoding="iso-8859-1"?>
<!-- Generator: Adobe Illustrator 16.0.0, SVG Export Plug-In . SVG Version: 6.00 Build 0)  -->
<!DOCTYPE svg PUBLIC "-//W3C//DTD SVG 1.1//EN" "http://www.w3.org/Graphics/SVG/1.1/DTD/svg11.dtd">
<svg xmlns="http://www.w3.org/2000/svg" xmlns:xlink="http://www.w3.org/1999/xlink" version="1.1" id="Capa_1" x="0px" y="0px" width="512px" height="512px" viewBox="0 0 45.221 45.221" style="enable-background:new 0 0 45.221 45.221;" xml:space="preserve">
<g>
	<g>
		<path d="M13.02,22.611c-2.985-2.961-7.805-2.956-10.784,0.021c-2.98,2.98-2.98,7.82,0,10.805c0.146,0.145,7.226,7.189,9.833,9.786    c0.526,0.522,1.375,0.522,1.901,0c2.608-2.595,9.689-9.644,9.833-9.786c2.981-2.984,2.981-7.823,0-10.805    C20.827,19.655,16.004,19.65,13.02,22.611z" fill="#FDFDFD"/>
		<path d="M22.398,1.605c-1.381,0-2.5,1.119-2.5,2.5s1.119,2.5,2.5,2.5c9.827,0,17.822,7.995,17.822,17.822    c0,1.381,1.118,2.5,2.5,2.5c1.381,0,2.5-1.119,2.5-2.5C45.222,11.843,34.983,1.605,22.398,1.605z" fill="#FDFDFD"/>
		<path d="M22.398,11.354c-1.381,0-2.5,1.119-2.5,2.5s1.119,2.5,2.5,2.5c4.452,0,8.074,3.622,8.074,8.074c0,1.381,1.118,2.5,2.5,2.5    c1.381,0,2.5-1.119,2.5-2.5C35.474,17.218,29.607,11.354,22.398,11.354z" fill="#FDFDFD"/>
	</g>
</g>
<g>
</g>
<g>
</g>
<g>
</g>
<g>
</g>
<g>
</g>
<g>
</g>
<g>
</g>
<g>
</g>
<g>
</g>
<g>
</g>
<g>
</g>
<g>
</g>
<g>
</g>
<g>
</g>
<g>
</g>
</svg>
