<?xml version="1.0" encoding="iso-8859-1"?>
<!-- Generator: Adobe Illustrator 16.0.0, SVG Export Plug-In . SVG Version: 6.00 Build 0)  -->
<!DOCTYPE svg PUBLIC "-//W3C//DTD SVG 1.1//EN" "http://www.w3.org/Graphics/SVG/1.1/DTD/svg11.dtd">
<svg xmlns="http://www.w3.org/2000/svg" xmlns:xlink="http://www.w3.org/1999/xlink" version="1.1" id="Capa_1" x="0px" y="0px" width="512px" height="512px" viewBox="0 0 45.502 45.502" style="enable-background:new 0 0 45.502 45.502;" xml:space="preserve">
<g>
	<path d="M36.688,14.674c-0.691,0-1.402,0.081-2,0.231v-5.82c0-1.815-7.764-3.285-17.343-3.285C7.765,5.8,0,7.27,0,9.085v27.332   c0,1.814,7.765,3.285,17.344,3.285c9.58,0,17.343-1.471,17.343-3.285v-4.346c0.598,0.152,1.309,0.232,2,0.232   c4.859,0,8.814-3.955,8.814-8.814C45.502,18.629,41.547,14.674,36.688,14.674z M25.928,26.935   c-0.115,0.116-5.768,5.741-7.849,7.812c-0.419,0.417-1.098,0.417-1.518,0c-2.081-2.071-7.732-7.696-7.849-7.812   c-2.38-2.382-2.38-6.244,0-8.625c2.377-2.375,6.225-2.381,8.608-0.017c2.382-2.364,6.232-2.358,8.607,0.017   C28.309,20.691,28.309,24.553,25.928,26.935z M17.32,12.37c-7.829,0-14.176-0.913-14.176-2.037S9.492,8.296,17.32,8.296   c7.83,0,14.176,0.912,14.176,2.037S25.149,12.37,17.32,12.37z M36.688,28.372c-0.717,0-1.402-0.155-2-0.434V19.04   c0.598-0.278,1.283-0.434,2-0.434c2.691,0,4.883,2.19,4.883,4.883C41.57,26.181,39.379,28.372,36.688,28.372z" fill="#FDFDFD"/>
</g>
<g>
</g>
<g>
</g>
<g>
</g>
<g>
</g>
<g>
</g>
<g>
</g>
<g>
</g>
<g>
</g>
<g>
</g>
<g>
</g>
<g>
</g>
<g>
</g>
<g>
</g>
<g>
</g>
<g>
</g>
</svg>
